<svg xmlns="http://www.w3.org/2000/svg" width="1200" height="720" viewBox="0 0 1200 720" role="img" aria-labelledby="title desc">
  <title id="title">Shivam Chopra GitHub profile</title>
  <desc id="desc">Terminal-style profile card for Shivam Chopra, Founder and AI Product Builder at illusionArt AI.</desc>
  <style>
    .mono { font: 18px ui-monospace, SFMono-Regular, Menlo, Monaco, Consolas, "Liberation Mono", monospace; fill: #1f2328; }
    .small { font-size: 15px; } .portrait { font-size: 13px; fill: #0969da; }
    .label { fill: #1a7f37; font-weight: 700; } .muted { fill: #656d76; }
  </style>
  <rect width="1200" height="720" rx="28" fill="#ffffff"/>
  <rect x="25" y="25" width="1150" height="670" rx="18" fill="#f6f8fa" stroke="#d0d7de" stroke-width="2"/>
  <circle cx="62" cy="61" r="8" fill="#cf222e"/><circle cx="88" cy="61" r="8" fill="#bf8700"/><circle cx="114" cy="61" r="8" fill="#1a7f37"/>
  <text x="600" y="67" text-anchor="middle" class="mono small muted">shivamchopra7 — profile</text>
  <line x1="25" y1="94" x2="1175" y2="94" stroke="#d0d7de" stroke-width="2"/>
  <text x="65" y="137" class="mono"><tspan class="label">shivamchopra7@illusionart</tspan><tspan class="muted">:~$ whoami</tspan></text>
  <text class="mono portrait"><tspan x="68" y="182">#*=::-####**=..............*#===+#</tspan>
<tspan x="68" y="197">#*-:.:=#+=*%@=. ..... ....:#*+*#%@</tspan>
<tspan x="68" y="212">%+-:..-##-:*@%=...........=###%@@@</tspan>
<tspan x="68" y="227">#+-:...+%#=+@%%+.........:*%%@@@@@</tspan>
<tspan x="68" y="242">#+-:...:=+==*#%*:..:--==-+%@@@@@@@</tspan>
<tspan x="68" y="257">#*=:..  ..:::-=:.:#%%%%%#%@@@@@@@@</tspan>
<tspan x="68" y="272">#**-:..    ..::..-*%=:---@@@@%@@@@</tspan>
<tspan x="68" y="287">**#+:... ...... ..-*#++.=@@@%#%@@@</tspan>
<tspan x="68" y="302">#+**=:....::... ...=+=:.*@@@#*%@@@</tspan>
<tspan x="68" y="317">%*++*=--::::..  .. ....:%@@%#*%@#+</tspan>
<tspan x="68" y="332">@#==**+---....  ...  ..=@@@@%##%*+</tspan>
<tspan x="68" y="347">@#=-*#+-=*....  ......:#@@@@@%%%**</tspan>
<tspan x="68" y="362">@@+=#@@##%#-.. ..:....=@@@@@@@@%#+</tspan>
<tspan x="68" y="377">@@%+--*@%%@@=....::..-#@@@@@@@@%=.</tspan>
<tspan x="68" y="392">@@@#-::+#%%@%=-::--:-#@@@@@@@@@*:.</tspan>
<tspan x="68" y="407">@@@%+----+##*++++=--#@@@@@@@@@@#-:</tspan>
<tspan x="68" y="422">@@@@+==*+:.:-=--=:-#@@@@@@@@@@@%+=</tspan>
<tspan x="68" y="437">@@@@*--*%#+:-:.:-=%@@@@@@@@@@@@%+-</tspan></text>
  <text x="550" y="186" class="mono" font-size="26" font-weight="700">Shivam Chopra</text>
  <text class="mono small"><tspan x="550" y="228" class="label">Role</tspan><tspan x="674" y="228">Founder / AI Product Builder</tspan>
<tspan x="550" y="267" class="label">Company</tspan><tspan x="674" y="267">illusionArt AI Private Limited</tspan>
<tspan x="550" y="306" class="label">Location</tspan><tspan x="674" y="306">Bengaluru, India</tspan>
<tspan x="550" y="345" class="label">Products</tspan><tspan x="674" y="345">Saaya.ai, Cerebro, Miles Masterclass, Guyana Digital School, Milesforce CRM, Pixelfluent.ai, Penwizard.ai, Codecraft.illusionart.ai</tspan>
<tspan x="550" y="384" class="label">Focus</tspan><tspan x="674" y="384">AI Agents &amp; Workflows, EdTech Transformation, Platform Scale, Cybersecurity</tspan>
<tspan x="550" y="423" class="label">Languages</tspan><tspan x="674" y="423">Python, Go, TypeScript, JavaScript</tspan>
<tspan x="550" y="462" class="label">Web</tspan><tspan x="674" y="462">Django, Next.js, React, Node.js, PostgreSQL, AWS, Docker</tspan>
<tspan x="550" y="501" class="label">AI</tspan><tspan x="674" y="501">Agentic AI, Voice &amp; Video AI, RAG, Multi-Agent Systems</tspan></text>
  <line x1="550" y1="557" x2="1128" y2="557" stroke="#d0d7de"/>
  <text x="550" y="591" class="mono small"><tspan class="label">Web         </tspan>shivamchopra.me  ·  illusionart.ai</text>
  <text x="550" y="622" class="mono small"><tspan class="label">Connect     </tspan>linkedin.com/in/shivamchopra7</text>
  <rect x="55" y="650" width="1090" height="1" fill="#d0d7de"/>
  <text x="600" y="677" text-anchor="middle" class="mono small muted">24 repos  ·  2 stars  ·  11 followers  ·  48 public commits / 365d  ·  building since 2015</text>
</svg>
